0
SECTION
2
HEADER
9
$ACADVER
1
AC1009
9
$INSUNITS
70
6
0
ENDSEC
0
SECTION
2
TABLES
0
TABLE
2
LAYER
70
10
0
LAYER
2
STREETS
70
0
62
8
6
CONTINUOUS
0
LAYER
2
STREET_NAMES
70
0
62
9
6
CONTINUOUS
0
LAYER
2
BUILDINGS
70
0
62
252
6
CONTINUOUS
0
LAYER
2
FIBER_CABLE
70
0
62
4
6
CONTINUOUS
0
LAYER
2
DROP_CABLE
70
0
62
3
6
CONTINUOUS
0
LAYER
2
FAT
70
0
62
6
6
CONTINUOUS
0
LAYER
2
FDT
70
0
62
1
6
CONTINUOUS
0
LAYER
2
FDH
70
0
62
2
6
CONTINUOUS
0
LAYER
2
MANHOLE
70
0
62
30
6
CONTINUOUS
0
LAYER
2
TEXT
70
0
62
7
6
CONTINUOUS
0
ENDTAB
0
ENDSEC
0
SECTION
2
ENTITIES
0
LINE
8
STREETS
10
331200
20
3326400
30
0
11
331200
21
3326750
31
0
0
LINE
8
STREETS
10
331214
20
3326400
30
0
11
331214
21
3326750
31
0
0
LINE
8
STREETS
10
331304
20
3326400
30
0
11
331304
21
3326750
31
0
0
LINE
8
STREETS
10
331318
20
3326400
30
0
11
331318
21
3326750
31
0
0
LINE
8
STREETS
10
331408
20
3326400
30
0
11
331408
21
3326750
31
0
0
LINE
8
STREETS
10
331422
20
3326400
30
0
11
331422
21
3326750
31
0
0
LINE
8
STREETS
10
331512
20
3326400
30
0
11
331512
21
3326750
31
0
0
LINE
8
STREETS
10
331526
20
3326400
30
0
11
331526
21
3326750
31
0
0
LINE
8
STREETS
10
331616
20
3326400
30
0
11
331616
21
3326750
31
0
0
LINE
8
STREETS
10
331630
20
3326400
30
0
11
331630
21
3326750
31
0
0
LINE
8
STREETS
10
331720
20
3326400
30
0
11
331720
21
3326750
31
0
0
LINE
8
STREETS
10
331734
20
3326400
30
0
11
331734
21
3326750
31
0
0
LINE
8
STREETS
10
331200
20
3326400
30
0
11
331734
21
3326400
31
0
0
LINE
8
STREETS
10
331200
20
3326414
30
0
11
331734
21
3326414
31
0
0
LINE
8
STREETS
10
331200
20
3326484
30
0
11
331734
21
3326484
31
0
0
LINE
8
STREETS
10
331200
20
3326498
30
0
11
331734
21
3326498
31
0
0
LINE
8
STREETS
10
331200
20
3326568
30
0
11
331734
21
3326568
31
0
0
LINE
8
STREETS
10
331200
20
3326582
30
0
11
331734
21
3326582
31
0
0
LINE
8
STREETS
10
331200
20
3326652
30
0
11
331734
21
3326652
31
0
0
LINE
8
STREETS
10
331200
20
3326666
30
0
11
331734
21
3326666
31
0
0
LINE
8
STREETS
10
331200
20
3326736
30
0
11
331734
21
3326736
31
0
0
LINE
8
STREETS
10
331200
20
3326750
30
0
11
331734
21
3326750
31
0
0
TEXT
8
STREET_NAMES
10
331230
20
3326404
30
0
40
4.5
1
El Nasr St
50
0
0
TEXT
8
STREET_NAMES
10
331230
20
3326488
30
0
40
4.5
1
El Salam St
50
0
0
TEXT
8
STREET_NAMES
10
331230
20
3326572
30
0
40
4.5
1
El Gomhoria St
50
0
0
TEXT
8
STREET_NAMES
10
331230
20
3326656
30
0
40
4.5
1
El Tahrir St
50
0
0
TEXT
8
STREET_NAMES
10
331230
20
3326740
30
0
40
4.5
1
Port Said St
50
0
0
TEXT
8
STREET_NAMES
10
331313
20
3326440
30
0
40
4.5
1
Street 1
50
90
0
TEXT
8
STREET_NAMES
10
331417
20
3326440
30
0
40
4.5
1
Street 2
50
90
0
TEXT
8
STREET_NAMES
10
331521
20
3326440
30
0
40
4.5
1
Street 3
50
90
0
TEXT
8
STREET_NAMES
10
331625
20
3326440
30
0
40
4.5
1
Street 4
50
90
0
LINE
8
BUILDINGS
10
331218
20
3326418
30
0
11
331243
21
3326418
31
0
0
LINE
8
BUILDINGS
10
331243
20
3326418
30
0
11
331243
21
3326446
31
0
0
LINE
8
BUILDINGS
10
331243
20
3326446
30
0
11
331218
21
3326446
31
0
0
LINE
8
BUILDINGS
10
331218
20
3326446
30
0
11
331218
21
3326418
31
0
0
TEXT
8
TEXT
10
331225
20
3326430
30
0
40
3.2
1
B1
50
0
0
LINE
8
BUILDINGS
10
331218
20
3326450
30
0
11
331243
21
3326450
31
0
0
LINE
8
BUILDINGS
10
331243
20
3326450
30
0
11
331243
21
3326478
31
0
0
LINE
8
BUILDINGS
10
331243
20
3326478
30
0
11
331218
21
3326478
31
0
0
LINE
8
BUILDINGS
10
331218
20
3326478
30
0
11
331218
21
3326450
31
0
0
TEXT
8
TEXT
10
331225
20
3326462
30
0
40
3.2
1
B2
50
0
0
LINE
8
BUILDINGS
10
331246.5
20
3326418
30
0
11
331271.5
21
3326418
31
0
0
LINE
8
BUILDINGS
10
331271.5
20
3326418
30
0
11
331271.5
21
3326446
31
0
0
LINE
8
BUILDINGS
10
331271.5
20
3326446
30
0
11
331246.5
21
3326446
31
0
0
LINE
8
BUILDINGS
10
331246.5
20
3326446
30
0
11
331246.5
21
3326418
31
0
0
TEXT
8
TEXT
10
331253.5
20
3326430
30
0
40
3.2
1
B3
50
0
0
LINE
8
BUILDINGS
10
331246.5
20
3326450
30
0
11
331271.5
21
3326450
31
0
0
LINE
8
BUILDINGS
10
331271.5
20
3326450
30
0
11
331271.5
21
3326478
31
0
0
LINE
8
BUILDINGS
10
331271.5
20
3326478
30
0
11
331246.5
21
3326478
31
0
0
LINE
8
BUILDINGS
10
331246.5
20
3326478
30
0
11
331246.5
21
3326450
31
0
0
TEXT
8
TEXT
10
331253.5
20
3326462
30
0
40
3.2
1
B4
50
0
0
LINE
8
BUILDINGS
10
331275
20
3326418
30
0
11
331300
21
3326418
31
0
0
LINE
8
BUILDINGS
10
331300
20
3326418
30
0
11
331300
21
3326446
31
0
0
LINE
8
BUILDINGS
10
331300
20
3326446
30
0
11
331275
21
3326446
31
0
0
LINE
8
BUILDINGS
10
331275
20
3326446
30
0
11
331275
21
3326418
31
0
0
TEXT
8
TEXT
10
331282
20
3326430
30
0
40
3.2
1
B5
50
0
0
LINE
8
BUILDINGS
10
331275
20
3326450
30
0
11
331300
21
3326450
31
0
0
LINE
8
BUILDINGS
10
331300
20
3326450
30
0
11
331300
21
3326478
31
0
0
LINE
8
BUILDINGS
10
331300
20
3326478
30
0
11
331275
21
3326478
31
0
0
LINE
8
BUILDINGS
10
331275
20
3326478
30
0
11
331275
21
3326450
31
0
0
TEXT
8
TEXT
10
331282
20
3326462
30
0
40
3.2
1
B6
50
0
0
LINE
8
BUILDINGS
10
331218
20
3326502
30
0
11
331243
21
3326502
31
0
0
LINE
8
BUILDINGS
10
331243
20
3326502
30
0
11
331243
21
3326530
31
0
0
LINE
8
BUILDINGS
10
331243
20
3326530
30
0
11
331218
21
3326530
31
0
0
LINE
8
BUILDINGS
10
331218
20
3326530
30
0
11
331218
21
3326502
31
0
0
TEXT
8
TEXT
10
331225
20
3326514
30
0
40
3.2
1
B7
50
0
0
LINE
8
BUILDINGS
10
331218
20
3326534
30
0
11
331243
21
3326534
31
0
0
LINE
8
BUILDINGS
10
331243
20
3326534
30
0
11
331243
21
3326562
31
0
0
LINE
8
BUILDINGS
10
331243
20
3326562
30
0
11
331218
21
3326562
31
0
0
LINE
8
BUILDINGS
10
331218
20
3326562
30
0
11
331218
21
3326534
31
0
0
TEXT
8
TEXT
10
331225
20
3326546
30
0
40
3.2
1
B8
50
0
0
LINE
8
BUILDINGS
10
331246.5
20
3326502
30
0
11
331271.5
21
3326502
31
0
0
LINE
8
BUILDINGS
10
331271.5
20
3326502
30
0
11
331271.5
21
3326530
31
0
0
LINE
8
BUILDINGS
10
331271.5
20
3326530
30
0
11
331246.5
21
3326530
31
0
0
LINE
8
BUILDINGS
10
331246.5
20
3326530
30
0
11
331246.5
21
3326502
31
0
0
TEXT
8
TEXT
10
331253.5
20
3326514
30
0
40
3.2
1
B9
50
0
0
LINE
8
BUILDINGS
10
331246.5
20
3326534
30
0
11
331271.5
21
3326534
31
0
0
LINE
8
BUILDINGS
10
331271.5
20
3326534
30
0
11
331271.5
21
3326562
31
0
0
LINE
8
BUILDINGS
10
331271.5
20
3326562
30
0
11
331246.5
21
3326562
31
0
0
LINE
8
BUILDINGS
10
331246.5
20
3326562
30
0
11
331246.5
21
3326534
31
0
0
TEXT
8
TEXT
10
331253.5
20
3326546
30
0
40
3.2
1
B10
50
0
0
LINE
8
BUILDINGS
10
331275
20
3326502
30
0
11
331300
21
3326502
31
0
0
LINE
8
BUILDINGS
10
331300
20
3326502
30
0
11
331300
21
3326530
31
0
0
LINE
8
BUILDINGS
10
331300
20
3326530
30
0
11
331275
21
3326530
31
0
0
LINE
8
BUILDINGS
10
331275
20
3326530
30
0
11
331275
21
3326502
31
0
0
TEXT
8
TEXT
10
331282
20
3326514
30
0
40
3.2
1
B11
50
0
0
LINE
8
BUILDINGS
10
331275
20
3326534
30
0
11
331300
21
3326534
31
0
0
LINE
8
BUILDINGS
10
331300
20
3326534
30
0
11
331300
21
3326562
31
0
0
LINE
8
BUILDINGS
10
331300
20
3326562
30
0
11
331275
21
3326562
31
0
0
LINE
8
BUILDINGS
10
331275
20
3326562
30
0
11
331275
21
3326534
31
0
0
TEXT
8
TEXT
10
331282
20
3326546
30
0
40
3.2
1
B12
50
0
0
LINE
8
BUILDINGS
10
331218
20
3326586
30
0
11
331243
21
3326586
31
0
0
LINE
8
BUILDINGS
10
331243
20
3326586
30
0
11
331243
21
3326614
31
0
0
LINE
8
BUILDINGS
10
331243
20
3326614
30
0
11
331218
21
3326614
31
0
0
LINE
8
BUILDINGS
10
331218
20
3326614
30
0
11
331218
21
3326586
31
0
0
TEXT
8
TEXT
10
331225
20
3326598
30
0
40
3.2
1
B13
50
0
0
LINE
8
BUILDINGS
10
331218
20
3326618
30
0
11
331243
21
3326618
31
0
0
LINE
8
BUILDINGS
10
331243
20
3326618
30
0
11
331243
21
3326646
31
0
0
LINE
8
BUILDINGS
10
331243
20
3326646
30
0
11
331218
21
3326646
31
0
0
LINE
8
BUILDINGS
10
331218
20
3326646
30
0
11
331218
21
3326618
31
0
0
TEXT
8
TEXT
10
331225
20
3326630
30
0
40
3.2
1
B14
50
0
0
LINE
8
BUILDINGS
10
331246.5
20
3326586
30
0
11
331271.5
21
3326586
31
0
0
LINE
8
BUILDINGS
10
331271.5
20
3326586
30
0
11
331271.5
21
3326614
31
0
0
LINE
8
BUILDINGS
10
331271.5
20
3326614
30
0
11
331246.5
21
3326614
31
0
0
LINE
8
BUILDINGS
10
331246.5
20
3326614
30
0
11
331246.5
21
3326586
31
0
0
TEXT
8
TEXT
10
331253.5
20
3326598
30
0
40
3.2
1
B15
50
0
0
LINE
8
BUILDINGS
10
331246.5
20
3326618
30
0
11
331271.5
21
3326618
31
0
0
LINE
8
BUILDINGS
10
331271.5
20
3326618
30
0
11
331271.5
21
3326646
31
0
0
LINE
8
BUILDINGS
10
331271.5
20
3326646
30
0
11
331246.5
21
3326646
31
0
0
LINE
8
BUILDINGS
10
331246.5
20
3326646
30
0
11
331246.5
21
3326618
31
0
0
TEXT
8
TEXT
10
331253.5
20
3326630
30
0
40
3.2
1
B16
50
0
0
LINE
8
BUILDINGS
10
331275
20
3326586
30
0
11
331300
21
3326586
31
0
0
LINE
8
BUILDINGS
10
331300
20
3326586
30
0
11
331300
21
3326614
31
0
0
LINE
8
BUILDINGS
10
331300
20
3326614
30
0
11
331275
21
3326614
31
0
0
LINE
8
BUILDINGS
10
331275
20
3326614
30
0
11
331275
21
3326586
31
0
0
TEXT
8
TEXT
10
331282
20
3326598
30
0
40
3.2
1
B17
50
0
0
LINE
8
BUILDINGS
10
331275
20
3326618
30
0
11
331300
21
3326618
31
0
0
LINE
8
BUILDINGS
10
331300
20
3326618
30
0
11
331300
21
3326646
31
0
0
LINE
8
BUILDINGS
10
331300
20
3326646
30
0
11
331275
21
3326646
31
0
0
LINE
8
BUILDINGS
10
331275
20
3326646
30
0
11
331275
21
3326618
31
0
0
TEXT
8
TEXT
10
331282
20
3326630
30
0
40
3.2
1
B18
50
0
0
LINE
8
BUILDINGS
10
331218
20
3326670
30
0
11
331243
21
3326670
31
0
0
LINE
8
BUILDINGS
10
331243
20
3326670
30
0
11
331243
21
3326698
31
0
0
LINE
8
BUILDINGS
10
331243
20
3326698
30
0
11
331218
21
3326698
31
0
0
LINE
8
BUILDINGS
10
331218
20
3326698
30
0
11
331218
21
3326670
31
0
0
TEXT
8
TEXT
10
331225
20
3326682
30
0
40
3.2
1
B19
50
0
0
LINE
8
BUILDINGS
10
331218
20
3326702
30
0
11
331243
21
3326702
31
0
0
LINE
8
BUILDINGS
10
331243
20
3326702
30
0
11
331243
21
3326730
31
0
0
LINE
8
BUILDINGS
10
331243
20
3326730
30
0
11
331218
21
3326730
31
0
0
LINE
8
BUILDINGS
10
331218
20
3326730
30
0
11
331218
21
3326702
31
0
0
TEXT
8
TEXT
10
331225
20
3326714
30
0
40
3.2
1
B20
50
0
0
LINE
8
BUILDINGS
10
331246.5
20
3326670
30
0
11
331271.5
21
3326670
31
0
0
LINE
8
BUILDINGS
10
331271.5
20
3326670
30
0
11
331271.5
21
3326698
31
0
0
LINE
8
BUILDINGS
10
331271.5
20
3326698
30
0
11
331246.5
21
3326698
31
0
0
LINE
8
BUILDINGS
10
331246.5
20
3326698
30
0
11
331246.5
21
3326670
31
0
0
TEXT
8
TEXT
10
331253.5
20
3326682
30
0
40
3.2
1
B21
50
0
0
LINE
8
BUILDINGS
10
331246.5
20
3326702
30
0
11
331271.5
21
3326702
31
0
0
LINE
8
BUILDINGS
10
331271.5
20
3326702
30
0
11
331271.5
21
3326730
31
0
0
LINE
8
BUILDINGS
10
331271.5
20
3326730
30
0
11
331246.5
21
3326730
31
0
0
LINE
8
BUILDINGS
10
331246.5
20
3326730
30
0
11
331246.5
21
3326702
31
0
0
TEXT
8
TEXT
10
331253.5
20
3326714
30
0
40
3.2
1
B22
50
0
0
LINE
8
BUILDINGS
10
331275
20
3326670
30
0
11
331300
21
3326670
31
0
0
LINE
8
BUILDINGS
10
331300
20
3326670
30
0
11
331300
21
3326698
31
0
0
LINE
8
BUILDINGS
10
331300
20
3326698
30
0
11
331275
21
3326698
31
0
0
LINE
8
BUILDINGS
10
331275
20
3326698
30
0
11
331275
21
3326670
31
0
0
TEXT
8
TEXT
10
331282
20
3326682
30
0
40
3.2
1
B23
50
0
0
LINE
8
BUILDINGS
10
331275
20
3326702
30
0
11
331300
21
3326702
31
0
0
LINE
8
BUILDINGS
10
331300
20
3326702
30
0
11
331300
21
3326730
31
0
0
LINE
8
BUILDINGS
10
331300
20
3326730
30
0
11
331275
21
3326730
31
0
0
LINE
8
BUILDINGS
10
331275
20
3326730
30
0
11
331275
21
3326702
31
0
0
TEXT
8
TEXT
10
331282
20
3326714
30
0
40
3.2
1
B24
50
0
0
LINE
8
BUILDINGS
10
331322
20
3326418
30
0
11
331347
21
3326418
31
0
0
LINE
8
BUILDINGS
10
331347
20
3326418
30
0
11
331347
21
3326446
31
0
0
LINE
8
BUILDINGS
10
331347
20
3326446
30
0
11
331322
21
3326446
31
0
0
LINE
8
BUILDINGS
10
331322
20
3326446
30
0
11
331322
21
3326418
31
0
0
TEXT
8
TEXT
10
331329
20
3326430
30
0
40
3.2
1
B25
50
0
0
LINE
8
BUILDINGS
10
331322
20
3326450
30
0
11
331347
21
3326450
31
0
0
LINE
8
BUILDINGS
10
331347
20
3326450
30
0
11
331347
21
3326478
31
0
0
LINE
8
BUILDINGS
10
331347
20
3326478
30
0
11
331322
21
3326478
31
0
0
LINE
8
BUILDINGS
10
331322
20
3326478
30
0
11
331322
21
3326450
31
0
0
TEXT
8
TEXT
10
331329
20
3326462
30
0
40
3.2
1
B26
50
0
0
LINE
8
BUILDINGS
10
331350.5
20
3326418
30
0
11
331375.5
21
3326418
31
0
0
LINE
8
BUILDINGS
10
331375.5
20
3326418
30
0
11
331375.5
21
3326446
31
0
0
LINE
8
BUILDINGS
10
331375.5
20
3326446
30
0
11
331350.5
21
3326446
31
0
0
LINE
8
BUILDINGS
10
331350.5
20
3326446
30
0
11
331350.5
21
3326418
31
0
0
TEXT
8
TEXT
10
331357.5
20
3326430
30
0
40
3.2
1
B27
50
0
0
LINE
8
BUILDINGS
10
331350.5
20
3326450
30
0
11
331375.5
21
3326450
31
0
0
LINE
8
BUILDINGS
10
331375.5
20
3326450
30
0
11
331375.5
21
3326478
31
0
0
LINE
8
BUILDINGS
10
331375.5
20
3326478
30
0
11
331350.5
21
3326478
31
0
0
LINE
8
BUILDINGS
10
331350.5
20
3326478
30
0
11
331350.5
21
3326450
31
0
0
TEXT
8
TEXT
10
331357.5
20
3326462
30
0
40
3.2
1
B28
50
0
0
LINE
8
BUILDINGS
10
331379
20
3326418
30
0
11
331404
21
3326418
31
0
0
LINE
8
BUILDINGS
10
331404
20
3326418
30
0
11
331404
21
3326446
31
0
0
LINE
8
BUILDINGS
10
331404
20
3326446
30
0
11
331379
21
3326446
31
0
0
LINE
8
BUILDINGS
10
331379
20
3326446
30
0
11
331379
21
3326418
31
0
0
TEXT
8
TEXT
10
331386
20
3326430
30
0
40
3.2
1
B29
50
0
0
LINE
8
BUILDINGS
10
331379
20
3326450
30
0
11
331404
21
3326450
31
0
0
LINE
8
BUILDINGS
10
331404
20
3326450
30
0
11
331404
21
3326478
31
0
0
LINE
8
BUILDINGS
10
331404
20
3326478
30
0
11
331379
21
3326478
31
0
0
LINE
8
BUILDINGS
10
331379
20
3326478
30
0
11
331379
21
3326450
31
0
0
TEXT
8
TEXT
10
331386
20
3326462
30
0
40
3.2
1
B30
50
0
0
LINE
8
BUILDINGS
10
331322
20
3326502
30
0
11
331347
21
3326502
31
0
0
LINE
8
BUILDINGS
10
331347
20
3326502
30
0
11
331347
21
3326530
31
0
0
LINE
8
BUILDINGS
10
331347
20
3326530
30
0
11
331322
21
3326530
31
0
0
LINE
8
BUILDINGS
10
331322
20
3326530
30
0
11
331322
21
3326502
31
0
0
TEXT
8
TEXT
10
331329
20
3326514
30
0
40
3.2
1
B31
50
0
0
LINE
8
BUILDINGS
10
331322
20
3326534
30
0
11
331347
21
3326534
31
0
0
LINE
8
BUILDINGS
10
331347
20
3326534
30
0
11
331347
21
3326562
31
0
0
LINE
8
BUILDINGS
10
331347
20
3326562
30
0
11
331322
21
3326562
31
0
0
LINE
8
BUILDINGS
10
331322
20
3326562
30
0
11
331322
21
3326534
31
0
0
TEXT
8
TEXT
10
331329
20
3326546
30
0
40
3.2
1
B32
50
0
0
LINE
8
BUILDINGS
10
331350.5
20
3326502
30
0
11
331375.5
21
3326502
31
0
0
LINE
8
BUILDINGS
10
331375.5
20
3326502
30
0
11
331375.5
21
3326530
31
0
0
LINE
8
BUILDINGS
10
331375.5
20
3326530
30
0
11
331350.5
21
3326530
31
0
0
LINE
8
BUILDINGS
10
331350.5
20
3326530
30
0
11
331350.5
21
3326502
31
0
0
TEXT
8
TEXT
10
331357.5
20
3326514
30
0
40
3.2
1
B33
50
0
0
LINE
8
BUILDINGS
10
331350.5
20
3326534
30
0
11
331375.5
21
3326534
31
0
0
LINE
8
BUILDINGS
10
331375.5
20
3326534
30
0
11
331375.5
21
3326562
31
0
0
LINE
8
BUILDINGS
10
331375.5
20
3326562
30
0
11
331350.5
21
3326562
31
0
0
LINE
8
BUILDINGS
10
331350.5
20
3326562
30
0
11
331350.5
21
3326534
31
0
0
TEXT
8
TEXT
10
331357.5
20
3326546
30
0
40
3.2
1
B34
50
0
0
LINE
8
BUILDINGS
10
331379
20
3326502
30
0
11
331404
21
3326502
31
0
0
LINE
8
BUILDINGS
10
331404
20
3326502
30
0
11
331404
21
3326530
31
0
0
LINE
8
BUILDINGS
10
331404
20
3326530
30
0
11
331379
21
3326530
31
0
0
LINE
8
BUILDINGS
10
331379
20
3326530
30
0
11
331379
21
3326502
31
0
0
TEXT
8
TEXT
10
331386
20
3326514
30
0
40
3.2
1
B35
50
0
0
LINE
8
BUILDINGS
10
331379
20
3326534
30
0
11
331404
21
3326534
31
0
0
LINE
8
BUILDINGS
10
331404
20
3326534
30
0
11
331404
21
3326562
31
0
0
LINE
8
BUILDINGS
10
331404
20
3326562
30
0
11
331379
21
3326562
31
0
0
LINE
8
BUILDINGS
10
331379
20
3326562
30
0
11
331379
21
3326534
31
0
0
TEXT
8
TEXT
10
331386
20
3326546
30
0
40
3.2
1
B36
50
0
0
LINE
8
BUILDINGS
10
331322
20
3326586
30
0
11
331347
21
3326586
31
0
0
LINE
8
BUILDINGS
10
331347
20
3326586
30
0
11
331347
21
3326614
31
0
0
LINE
8
BUILDINGS
10
331347
20
3326614
30
0
11
331322
21
3326614
31
0
0
LINE
8
BUILDINGS
10
331322
20
3326614
30
0
11
331322
21
3326586
31
0
0
TEXT
8
TEXT
10
331329
20
3326598
30
0
40
3.2
1
B37
50
0
0
LINE
8
BUILDINGS
10
331322
20
3326618
30
0
11
331347
21
3326618
31
0
0
LINE
8
BUILDINGS
10
331347
20
3326618
30
0
11
331347
21
3326646
31
0
0
LINE
8
BUILDINGS
10
331347
20
3326646
30
0
11
331322
21
3326646
31
0
0
LINE
8
BUILDINGS
10
331322
20
3326646
30
0
11
331322
21
3326618
31
0
0
TEXT
8
TEXT
10
331329
20
3326630
30
0
40
3.2
1
B38
50
0
0
LINE
8
BUILDINGS
10
331350.5
20
3326586
30
0
11
331375.5
21
3326586
31
0
0
LINE
8
BUILDINGS
10
331375.5
20
3326586
30
0
11
331375.5
21
3326614
31
0
0
LINE
8
BUILDINGS
10
331375.5
20
3326614
30
0
11
331350.5
21
3326614
31
0
0
LINE
8
BUILDINGS
10
331350.5
20
3326614
30
0
11
331350.5
21
3326586
31
0
0
TEXT
8
TEXT
10
331357.5
20
3326598
30
0
40
3.2
1
B39
50
0
0
LINE
8
BUILDINGS
10
331350.5
20
3326618
30
0
11
331375.5
21
3326618
31
0
0
LINE
8
BUILDINGS
10
331375.5
20
3326618
30
0
11
331375.5
21
3326646
31
0
0
LINE
8
BUILDINGS
10
331375.5
20
3326646
30
0
11
331350.5
21
3326646
31
0
0
LINE
8
BUILDINGS
10
331350.5
20
3326646
30
0
11
331350.5
21
3326618
31
0
0
TEXT
8
TEXT
10
331357.5
20
3326630
30
0
40
3.2
1
B40
50
0
0
LINE
8
BUILDINGS
10
331379
20
3326586
30
0
11
331404
21
3326586
31
0
0
LINE
8
BUILDINGS
10
331404
20
3326586
30
0
11
331404
21
3326614
31
0
0
LINE
8
BUILDINGS
10
331404
20
3326614
30
0
11
331379
21
3326614
31
0
0
LINE
8
BUILDINGS
10
331379
20
3326614
30
0
11
331379
21
3326586
31
0
0
TEXT
8
TEXT
10
331386
20
3326598
30
0
40
3.2
1
B41
50
0
0
LINE
8
BUILDINGS
10
331379
20
3326618
30
0
11
331404
21
3326618
31
0
0
LINE
8
BUILDINGS
10
331404
20
3326618
30
0
11
331404
21
3326646
31
0
0
LINE
8
BUILDINGS
10
331404
20
3326646
30
0
11
331379
21
3326646
31
0
0
LINE
8
BUILDINGS
10
331379
20
3326646
30
0
11
331379
21
3326618
31
0
0
TEXT
8
TEXT
10
331386
20
3326630
30
0
40
3.2
1
B42
50
0
0
LINE
8
BUILDINGS
10
331322
20
3326670
30
0
11
331347
21
3326670
31
0
0
LINE
8
BUILDINGS
10
331347
20
3326670
30
0
11
331347
21
3326698
31
0
0
LINE
8
BUILDINGS
10
331347
20
3326698
30
0
11
331322
21
3326698
31
0
0
LINE
8
BUILDINGS
10
331322
20
3326698
30
0
11
331322
21
3326670
31
0
0
TEXT
8
TEXT
10
331329
20
3326682
30
0
40
3.2
1
B43
50
0
0
LINE
8
BUILDINGS
10
331322
20
3326702
30
0
11
331347
21
3326702
31
0
0
LINE
8
BUILDINGS
10
331347
20
3326702
30
0
11
331347
21
3326730
31
0
0
LINE
8
BUILDINGS
10
331347
20
3326730
30
0
11
331322
21
3326730
31
0
0
LINE
8
BUILDINGS
10
331322
20
3326730
30
0
11
331322
21
3326702
31
0
0
TEXT
8
TEXT
10
331329
20
3326714
30
0
40
3.2
1
B44
50
0
0
LINE
8
BUILDINGS
10
331350.5
20
3326670
30
0
11
331375.5
21
3326670
31
0
0
LINE
8
BUILDINGS
10
331375.5
20
3326670
30
0
11
331375.5
21
3326698
31
0
0
LINE
8
BUILDINGS
10
331375.5
20
3326698
30
0
11
331350.5
21
3326698
31
0
0
LINE
8
BUILDINGS
10
331350.5
20
3326698
30
0
11
331350.5
21
3326670
31
0
0
TEXT
8
TEXT
10
331357.5
20
3326682
30
0
40
3.2
1
B45
50
0
0
LINE
8
BUILDINGS
10
331350.5
20
3326702
30
0
11
331375.5
21
3326702
31
0
0
LINE
8
BUILDINGS
10
331375.5
20
3326702
30
0
11
331375.5
21
3326730
31
0
0
LINE
8
BUILDINGS
10
331375.5
20
3326730
30
0
11
331350.5
21
3326730
31
0
0
LINE
8
BUILDINGS
10
331350.5
20
3326730
30
0
11
331350.5
21
3326702
31
0
0
TEXT
8
TEXT
10
331357.5
20
3326714
30
0
40
3.2
1
B46
50
0
0
LINE
8
BUILDINGS
10
331379
20
3326670
30
0
11
331404
21
3326670
31
0
0
LINE
8
BUILDINGS
10
331404
20
3326670
30
0
11
331404
21
3326698
31
0
0
LINE
8
BUILDINGS
10
331404
20
3326698
30
0
11
331379
21
3326698
31
0
0
LINE
8
BUILDINGS
10
331379
20
3326698
30
0
11
331379
21
3326670
31
0
0
TEXT
8
TEXT
10
331386
20
3326682
30
0
40
3.2
1
B47
50
0
0
LINE
8
BUILDINGS
10
331379
20
3326702
30
0
11
331404
21
3326702
31
0
0
LINE
8
BUILDINGS
10
331404
20
3326702
30
0
11
331404
21
3326730
31
0
0
LINE
8
BUILDINGS
10
331404
20
3326730
30
0
11
331379
21
3326730
31
0
0
LINE
8
BUILDINGS
10
331379
20
3326730
30
0
11
331379
21
3326702
31
0
0
TEXT
8
TEXT
10
331386
20
3326714
30
0
40
3.2
1
B48
50
0
0
LINE
8
BUILDINGS
10
331426
20
3326418
30
0
11
331451
21
3326418
31
0
0
LINE
8
BUILDINGS
10
331451
20
3326418
30
0
11
331451
21
3326446
31
0
0
LINE
8
BUILDINGS
10
331451
20
3326446
30
0
11
331426
21
3326446
31
0
0
LINE
8
BUILDINGS
10
331426
20
3326446
30
0
11
331426
21
3326418
31
0
0
TEXT
8
TEXT
10
331433
20
3326430
30
0
40
3.2
1
B49
50
0
0
LINE
8
BUILDINGS
10
331426
20
3326450
30
0
11
331451
21
3326450
31
0
0
LINE
8
BUILDINGS
10
331451
20
3326450
30
0
11
331451
21
3326478
31
0
0
LINE
8
BUILDINGS
10
331451
20
3326478
30
0
11
331426
21
3326478
31
0
0
LINE
8
BUILDINGS
10
331426
20
3326478
30
0
11
331426
21
3326450
31
0
0
TEXT
8
TEXT
10
331433
20
3326462
30
0
40
3.2
1
B50
50
0
0
LINE
8
BUILDINGS
10
331454.5
20
3326418
30
0
11
331479.5
21
3326418
31
0
0
LINE
8
BUILDINGS
10
331479.5
20
3326418
30
0
11
331479.5
21
3326446
31
0
0
LINE
8
BUILDINGS
10
331479.5
20
3326446
30
0
11
331454.5
21
3326446
31
0
0
LINE
8
BUILDINGS
10
331454.5
20
3326446
30
0
11
331454.5
21
3326418
31
0
0
TEXT
8
TEXT
10
331461.5
20
3326430
30
0
40
3.2
1
B51
50
0
0
LINE
8
BUILDINGS
10
331454.5
20
3326450
30
0
11
331479.5
21
3326450
31
0
0
LINE
8
BUILDINGS
10
331479.5
20
3326450
30
0
11
331479.5
21
3326478
31
0
0
LINE
8
BUILDINGS
10
331479.5
20
3326478
30
0
11
331454.5
21
3326478
31
0
0
LINE
8
BUILDINGS
10
331454.5
20
3326478
30
0
11
331454.5
21
3326450
31
0
0
TEXT
8
TEXT
10
331461.5
20
3326462
30
0
40
3.2
1
B52
50
0
0
LINE
8
BUILDINGS
10
331483
20
3326418
30
0
11
331508
21
3326418
31
0
0
LINE
8
BUILDINGS
10
331508
20
3326418
30
0
11
331508
21
3326446
31
0
0
LINE
8
BUILDINGS
10
331508
20
3326446
30
0
11
331483
21
3326446
31
0
0
LINE
8
BUILDINGS
10
331483
20
3326446
30
0
11
331483
21
3326418
31
0
0
TEXT
8
TEXT
10
331490
20
3326430
30
0
40
3.2
1
B53
50
0
0
LINE
8
BUILDINGS
10
331483
20
3326450
30
0
11
331508
21
3326450
31
0
0
LINE
8
BUILDINGS
10
331508
20
3326450
30
0
11
331508
21
3326478
31
0
0
LINE
8
BUILDINGS
10
331508
20
3326478
30
0
11
331483
21
3326478
31
0
0
LINE
8
BUILDINGS
10
331483
20
3326478
30
0
11
331483
21
3326450
31
0
0
TEXT
8
TEXT
10
331490
20
3326462
30
0
40
3.2
1
B54
50
0
0
LINE
8
BUILDINGS
10
331426
20
3326502
30
0
11
331451
21
3326502
31
0
0
LINE
8
BUILDINGS
10
331451
20
3326502
30
0
11
331451
21
3326530
31
0
0
LINE
8
BUILDINGS
10
331451
20
3326530
30
0
11
331426
21
3326530
31
0
0
LINE
8
BUILDINGS
10
331426
20
3326530
30
0
11
331426
21
3326502
31
0
0
TEXT
8
TEXT
10
331433
20
3326514
30
0
40
3.2
1
B55
50
0
0
LINE
8
BUILDINGS
10
331426
20
3326534
30
0
11
331451
21
3326534
31
0
0
LINE
8
BUILDINGS
10
331451
20
3326534
30
0
11
331451
21
3326562
31
0
0
LINE
8
BUILDINGS
10
331451
20
3326562
30
0
11
331426
21
3326562
31
0
0
LINE
8
BUILDINGS
10
331426
20
3326562
30
0
11
331426
21
3326534
31
0
0
TEXT
8
TEXT
10
331433
20
3326546
30
0
40
3.2
1
B56
50
0
0
LINE
8
BUILDINGS
10
331454.5
20
3326502
30
0
11
331479.5
21
3326502
31
0
0
LINE
8
BUILDINGS
10
331479.5
20
3326502
30
0
11
331479.5
21
3326530
31
0
0
LINE
8
BUILDINGS
10
331479.5
20
3326530
30
0
11
331454.5
21
3326530
31
0
0
LINE
8
BUILDINGS
10
331454.5
20
3326530
30
0
11
331454.5
21
3326502
31
0
0
TEXT
8
TEXT
10
331461.5
20
3326514
30
0
40
3.2
1
B57
50
0
0
LINE
8
BUILDINGS
10
331454.5
20
3326534
30
0
11
331479.5
21
3326534
31
0
0
LINE
8
BUILDINGS
10
331479.5
20
3326534
30
0
11
331479.5
21
3326562
31
0
0
LINE
8
BUILDINGS
10
331479.5
20
3326562
30
0
11
331454.5
21
3326562
31
0
0
LINE
8
BUILDINGS
10
331454.5
20
3326562
30
0
11
331454.5
21
3326534
31
0
0
TEXT
8
TEXT
10
331461.5
20
3326546
30
0
40
3.2
1
B58
50
0
0
LINE
8
BUILDINGS
10
331483
20
3326502
30
0
11
331508
21
3326502
31
0
0
LINE
8
BUILDINGS
10
331508
20
3326502
30
0
11
331508
21
3326530
31
0
0
LINE
8
BUILDINGS
10
331508
20
3326530
30
0
11
331483
21
3326530
31
0
0
LINE
8
BUILDINGS
10
331483
20
3326530
30
0
11
331483
21
3326502
31
0
0
TEXT
8
TEXT
10
331490
20
3326514
30
0
40
3.2
1
B59
50
0
0
LINE
8
BUILDINGS
10
331483
20
3326534
30
0
11
331508
21
3326534
31
0
0
LINE
8
BUILDINGS
10
331508
20
3326534
30
0
11
331508
21
3326562
31
0
0
LINE
8
BUILDINGS
10
331508
20
3326562
30
0
11
331483
21
3326562
31
0
0
LINE
8
BUILDINGS
10
331483
20
3326562
30
0
11
331483
21
3326534
31
0
0
TEXT
8
TEXT
10
331490
20
3326546
30
0
40
3.2
1
B60
50
0
0
LINE
8
BUILDINGS
10
331426
20
3326586
30
0
11
331451
21
3326586
31
0
0
LINE
8
BUILDINGS
10
331451
20
3326586
30
0
11
331451
21
3326614
31
0
0
LINE
8
BUILDINGS
10
331451
20
3326614
30
0
11
331426
21
3326614
31
0
0
LINE
8
BUILDINGS
10
331426
20
3326614
30
0
11
331426
21
3326586
31
0
0
TEXT
8
TEXT
10
331433
20
3326598
30
0
40
3.2
1
B61
50
0
0
LINE
8
BUILDINGS
10
331426
20
3326618
30
0
11
331451
21
3326618
31
0
0
LINE
8
BUILDINGS
10
331451
20
3326618
30
0
11
331451
21
3326646
31
0
0
LINE
8
BUILDINGS
10
331451
20
3326646
30
0
11
331426
21
3326646
31
0
0
LINE
8
BUILDINGS
10
331426
20
3326646
30
0
11
331426
21
3326618
31
0
0
TEXT
8
TEXT
10
331433
20
3326630
30
0
40
3.2
1
B62
50
0
0
LINE
8
BUILDINGS
10
331454.5
20
3326586
30
0
11
331479.5
21
3326586
31
0
0
LINE
8
BUILDINGS
10
331479.5
20
3326586
30
0
11
331479.5
21
3326614
31
0
0
LINE
8
BUILDINGS
10
331479.5
20
3326614
30
0
11
331454.5
21
3326614
31
0
0
LINE
8
BUILDINGS
10
331454.5
20
3326614
30
0
11
331454.5
21
3326586
31
0
0
TEXT
8
TEXT
10
331461.5
20
3326598
30
0
40
3.2
1
B63
50
0
0
LINE
8
BUILDINGS
10
331454.5
20
3326618
30
0
11
331479.5
21
3326618
31
0
0
LINE
8
BUILDINGS
10
331479.5
20
3326618
30
0
11
331479.5
21
3326646
31
0
0
LINE
8
BUILDINGS
10
331479.5
20
3326646
30
0
11
331454.5
21
3326646
31
0
0
LINE
8
BUILDINGS
10
331454.5
20
3326646
30
0
11
331454.5
21
3326618
31
0
0
TEXT
8
TEXT
10
331461.5
20
3326630
30
0
40
3.2
1
B64
50
0
0
LINE
8
BUILDINGS
10
331483
20
3326586
30
0
11
331508
21
3326586
31
0
0
LINE
8
BUILDINGS
10
331508
20
3326586
30
0
11
331508
21
3326614
31
0
0
LINE
8
BUILDINGS
10
331508
20
3326614
30
0
11
331483
21
3326614
31
0
0
LINE
8
BUILDINGS
10
331483
20
3326614
30
0
11
331483
21
3326586
31
0
0
TEXT
8
TEXT
10
331490
20
3326598
30
0
40
3.2
1
B65
50
0
0
LINE
8
BUILDINGS
10
331483
20
3326618
30
0
11
331508
21
3326618
31
0
0
LINE
8
BUILDINGS
10
331508
20
3326618
30
0
11
331508
21
3326646
31
0
0
LINE
8
BUILDINGS
10
331508
20
3326646
30
0
11
331483
21
3326646
31
0
0
LINE
8
BUILDINGS
10
331483
20
3326646
30
0
11
331483
21
3326618
31
0
0
TEXT
8
TEXT
10
331490
20
3326630
30
0
40
3.2
1
B66
50
0
0
LINE
8
BUILDINGS
10
331426
20
3326670
30
0
11
331451
21
3326670
31
0
0
LINE
8
BUILDINGS
10
331451
20
3326670
30
0
11
331451
21
3326698
31
0
0
LINE
8
BUILDINGS
10
331451
20
3326698
30
0
11
331426
21
3326698
31
0
0
LINE
8
BUILDINGS
10
331426
20
3326698
30
0
11
331426
21
3326670
31
0
0
TEXT
8
TEXT
10
331433
20
3326682
30
0
40
3.2
1
B67
50
0
0
LINE
8
BUILDINGS
10
331426
20
3326702
30
0
11
331451
21
3326702
31
0
0
LINE
8
BUILDINGS
10
331451
20
3326702
30
0
11
331451
21
3326730
31
0
0
LINE
8
BUILDINGS
10
331451
20
3326730
30
0
11
331426
21
3326730
31
0
0
LINE
8
BUILDINGS
10
331426
20
3326730
30
0
11
331426
21
3326702
31
0
0
TEXT
8
TEXT
10
331433
20
3326714
30
0
40
3.2
1
B68
50
0
0
LINE
8
BUILDINGS
10
331454.5
20
3326670
30
0
11
331479.5
21
3326670
31
0
0
LINE
8
BUILDINGS
10
331479.5
20
3326670
30
0
11
331479.5
21
3326698
31
0
0
LINE
8
BUILDINGS
10
331479.5
20
3326698
30
0
11
331454.5
21
3326698
31
0
0
LINE
8
BUILDINGS
10
331454.5
20
3326698
30
0
11
331454.5
21
3326670
31
0
0
TEXT
8
TEXT
10
331461.5
20
3326682
30
0
40
3.2
1
B69
50
0
0
LINE
8
BUILDINGS
10
331454.5
20
3326702
30
0
11
331479.5
21
3326702
31
0
0
LINE
8
BUILDINGS
10
331479.5
20
3326702
30
0
11
331479.5
21
3326730
31
0
0
LINE
8
BUILDINGS
10
331479.5
20
3326730
30
0
11
331454.5
21
3326730
31
0
0
LINE
8
BUILDINGS
10
331454.5
20
3326730
30
0
11
331454.5
21
3326702
31
0
0
TEXT
8
TEXT
10
331461.5
20
3326714
30
0
40
3.2
1
B70
50
0
0
LINE
8
BUILDINGS
10
331483
20
3326670
30
0
11
331508
21
3326670
31
0
0
LINE
8
BUILDINGS
10
331508
20
3326670
30
0
11
331508
21
3326698
31
0
0
LINE
8
BUILDINGS
10
331508
20
3326698
30
0
11
331483
21
3326698
31
0
0
LINE
8
BUILDINGS
10
331483
20
3326698
30
0
11
331483
21
3326670
31
0
0
TEXT
8
TEXT
10
331490
20
3326682
30
0
40
3.2
1
B71
50
0
0
LINE
8
BUILDINGS
10
331483
20
3326702
30
0
11
331508
21
3326702
31
0
0
LINE
8
BUILDINGS
10
331508
20
3326702
30
0
11
331508
21
3326730
31
0
0
LINE
8
BUILDINGS
10
331508
20
3326730
30
0
11
331483
21
3326730
31
0
0
LINE
8
BUILDINGS
10
331483
20
3326730
30
0
11
331483
21
3326702
31
0
0
TEXT
8
TEXT
10
331490
20
3326714
30
0
40
3.2
1
B72
50
0
0
LINE
8
BUILDINGS
10
331530
20
3326418
30
0
11
331555
21
3326418
31
0
0
LINE
8
BUILDINGS
10
331555
20
3326418
30
0
11
331555
21
3326446
31
0
0
LINE
8
BUILDINGS
10
331555
20
3326446
30
0
11
331530
21
3326446
31
0
0
LINE
8
BUILDINGS
10
331530
20
3326446
30
0
11
331530
21
3326418
31
0
0
TEXT
8
TEXT
10
331537
20
3326430
30
0
40
3.2
1
B73
50
0
0
LINE
8
BUILDINGS
10
331530
20
3326450
30
0
11
331555
21
3326450
31
0
0
LINE
8
BUILDINGS
10
331555
20
3326450
30
0
11
331555
21
3326478
31
0
0
LINE
8
BUILDINGS
10
331555
20
3326478
30
0
11
331530
21
3326478
31
0
0
LINE
8
BUILDINGS
10
331530
20
3326478
30
0
11
331530
21
3326450
31
0
0
TEXT
8
TEXT
10
331537
20
3326462
30
0
40
3.2
1
B74
50
0
0
LINE
8
BUILDINGS
10
331558.5
20
3326418
30
0
11
331583.5
21
3326418
31
0
0
LINE
8
BUILDINGS
10
331583.5
20
3326418
30
0
11
331583.5
21
3326446
31
0
0
LINE
8
BUILDINGS
10
331583.5
20
3326446
30
0
11
331558.5
21
3326446
31
0
0
LINE
8
BUILDINGS
10
331558.5
20
3326446
30
0
11
331558.5
21
3326418
31
0
0
TEXT
8
TEXT
10
331565.5
20
3326430
30
0
40
3.2
1
B75
50
0
0
LINE
8
BUILDINGS
10
331558.5
20
3326450
30
0
11
331583.5
21
3326450
31
0
0
LINE
8
BUILDINGS
10
331583.5
20
3326450
30
0
11
331583.5
21
3326478
31
0
0
LINE
8
BUILDINGS
10
331583.5
20
3326478
30
0
11
331558.5
21
3326478
31
0
0
LINE
8
BUILDINGS
10
331558.5
20
3326478
30
0
11
331558.5
21
3326450
31
0
0
TEXT
8
TEXT
10
331565.5
20
3326462
30
0
40
3.2
1
B76
50
0
0
LINE
8
BUILDINGS
10
331587
20
3326418
30
0
11
331612
21
3326418
31
0
0
LINE
8
BUILDINGS
10
331612
20
3326418
30
0
11
331612
21
3326446
31
0
0
LINE
8
BUILDINGS
10
331612
20
3326446
30
0
11
331587
21
3326446
31
0
0
LINE
8
BUILDINGS
10
331587
20
3326446
30
0
11
331587
21
3326418
31
0
0
TEXT
8
TEXT
10
331594
20
3326430
30
0
40
3.2
1
B77
50
0
0
LINE
8
BUILDINGS
10
331587
20
3326450
30
0
11
331612
21
3326450
31
0
0
LINE
8
BUILDINGS
10
331612
20
3326450
30
0
11
331612
21
3326478
31
0
0
LINE
8
BUILDINGS
10
331612
20
3326478
30
0
11
331587
21
3326478
31
0
0
LINE
8
BUILDINGS
10
331587
20
3326478
30
0
11
331587
21
3326450
31
0
0
TEXT
8
TEXT
10
331594
20
3326462
30
0
40
3.2
1
B78
50
0
0
LINE
8
BUILDINGS
10
331530
20
3326502
30
0
11
331555
21
3326502
31
0
0
LINE
8
BUILDINGS
10
331555
20
3326502
30
0
11
331555
21
3326530
31
0
0
LINE
8
BUILDINGS
10
331555
20
3326530
30
0
11
331530
21
3326530
31
0
0
LINE
8
BUILDINGS
10
331530
20
3326530
30
0
11
331530
21
3326502
31
0
0
TEXT
8
TEXT
10
331537
20
3326514
30
0
40
3.2
1
B79
50
0
0
LINE
8
BUILDINGS
10
331530
20
3326534
30
0
11
331555
21
3326534
31
0
0
LINE
8
BUILDINGS
10
331555
20
3326534
30
0
11
331555
21
3326562
31
0
0
LINE
8
BUILDINGS
10
331555
20
3326562
30
0
11
331530
21
3326562
31
0
0
LINE
8
BUILDINGS
10
331530
20
3326562
30
0
11
331530
21
3326534
31
0
0
TEXT
8
TEXT
10
331537
20
3326546
30
0
40
3.2
1
B80
50
0
0
LINE
8
BUILDINGS
10
331558.5
20
3326502
30
0
11
331583.5
21
3326502
31
0
0
LINE
8
BUILDINGS
10
331583.5
20
3326502
30
0
11
331583.5
21
3326530
31
0
0
LINE
8
BUILDINGS
10
331583.5
20
3326530
30
0
11
331558.5
21
3326530
31
0
0
LINE
8
BUILDINGS
10
331558.5
20
3326530
30
0
11
331558.5
21
3326502
31
0
0
TEXT
8
TEXT
10
331565.5
20
3326514
30
0
40
3.2
1
B81
50
0
0
LINE
8
BUILDINGS
10
331558.5
20
3326534
30
0
11
331583.5
21
3326534
31
0
0
LINE
8
BUILDINGS
10
331583.5
20
3326534
30
0
11
331583.5
21
3326562
31
0
0
LINE
8
BUILDINGS
10
331583.5
20
3326562
30
0
11
331558.5
21
3326562
31
0
0
LINE
8
BUILDINGS
10
331558.5
20
3326562
30
0
11
331558.5
21
3326534
31
0
0
TEXT
8
TEXT
10
331565.5
20
3326546
30
0
40
3.2
1
B82
50
0
0
LINE
8
BUILDINGS
10
331587
20
3326502
30
0
11
331612
21
3326502
31
0
0
LINE
8
BUILDINGS
10
331612
20
3326502
30
0
11
331612
21
3326530
31
0
0
LINE
8
BUILDINGS
10
331612
20
3326530
30
0
11
331587
21
3326530
31
0
0
LINE
8
BUILDINGS
10
331587
20
3326530
30
0
11
331587
21
3326502
31
0
0
TEXT
8
TEXT
10
331594
20
3326514
30
0
40
3.2
1
B83
50
0
0
LINE
8
BUILDINGS
10
331587
20
3326534
30
0
11
331612
21
3326534
31
0
0
LINE
8
BUILDINGS
10
331612
20
3326534
30
0
11
331612
21
3326562
31
0
0
LINE
8
BUILDINGS
10
331612
20
3326562
30
0
11
331587
21
3326562
31
0
0
LINE
8
BUILDINGS
10
331587
20
3326562
30
0
11
331587
21
3326534
31
0
0
TEXT
8
TEXT
10
331594
20
3326546
30
0
40
3.2
1
B84
50
0
0
LINE
8
BUILDINGS
10
331530
20
3326586
30
0
11
331555
21
3326586
31
0
0
LINE
8
BUILDINGS
10
331555
20
3326586
30
0
11
331555
21
3326614
31
0
0
LINE
8
BUILDINGS
10
331555
20
3326614
30
0
11
331530
21
3326614
31
0
0
LINE
8
BUILDINGS
10
331530
20
3326614
30
0
11
331530
21
3326586
31
0
0
TEXT
8
TEXT
10
331537
20
3326598
30
0
40
3.2
1
B85
50
0
0
LINE
8
BUILDINGS
10
331530
20
3326618
30
0
11
331555
21
3326618
31
0
0
LINE
8
BUILDINGS
10
331555
20
3326618
30
0
11
331555
21
3326646
31
0
0
LINE
8
BUILDINGS
10
331555
20
3326646
30
0
11
331530
21
3326646
31
0
0
LINE
8
BUILDINGS
10
331530
20
3326646
30
0
11
331530
21
3326618
31
0
0
TEXT
8
TEXT
10
331537
20
3326630
30
0
40
3.2
1
B86
50
0
0
LINE
8
BUILDINGS
10
331558.5
20
3326586
30
0
11
331583.5
21
3326586
31
0
0
LINE
8
BUILDINGS
10
331583.5
20
3326586
30
0
11
331583.5
21
3326614
31
0
0
LINE
8
BUILDINGS
10
331583.5
20
3326614
30
0
11
331558.5
21
3326614
31
0
0
LINE
8
BUILDINGS
10
331558.5
20
3326614
30
0
11
331558.5
21
3326586
31
0
0
TEXT
8
TEXT
10
331565.5
20
3326598
30
0
40
3.2
1
B87
50
0
0
LINE
8
BUILDINGS
10
331558.5
20
3326618
30
0
11
331583.5
21
3326618
31
0
0
LINE
8
BUILDINGS
10
331583.5
20
3326618
30
0
11
331583.5
21
3326646
31
0
0
LINE
8
BUILDINGS
10
331583.5
20
3326646
30
0
11
331558.5
21
3326646
31
0
0
LINE
8
BUILDINGS
10
331558.5
20
3326646
30
0
11
331558.5
21
3326618
31
0
0
TEXT
8
TEXT
10
331565.5
20
3326630
30
0
40
3.2
1
B88
50
0
0
LINE
8
BUILDINGS
10
331587
20
3326586
30
0
11
331612
21
3326586
31
0
0
LINE
8
BUILDINGS
10
331612
20
3326586
30
0
11
331612
21
3326614
31
0
0
LINE
8
BUILDINGS
10
331612
20
3326614
30
0
11
331587
21
3326614
31
0
0
LINE
8
BUILDINGS
10
331587
20
3326614
30
0
11
331587
21
3326586
31
0
0
TEXT
8
TEXT
10
331594
20
3326598
30
0
40
3.2
1
B89
50
0
0
LINE
8
BUILDINGS
10
331587
20
3326618
30
0
11
331612
21
3326618
31
0
0
LINE
8
BUILDINGS
10
331612
20
3326618
30
0
11
331612
21
3326646
31
0
0
LINE
8
BUILDINGS
10
331612
20
3326646
30
0
11
331587
21
3326646
31
0
0
LINE
8
BUILDINGS
10
331587
20
3326646
30
0
11
331587
21
3326618
31
0
0
TEXT
8
TEXT
10
331594
20
3326630
30
0
40
3.2
1
B90
50
0
0
LINE
8
BUILDINGS
10
331530
20
3326670
30
0
11
331555
21
3326670
31
0
0
LINE
8
BUILDINGS
10
331555
20
3326670
30
0
11
331555
21
3326698
31
0
0
LINE
8
BUILDINGS
10
331555
20
3326698
30
0
11
331530
21
3326698
31
0
0
LINE
8
BUILDINGS
10
331530
20
3326698
30
0
11
331530
21
3326670
31
0
0
TEXT
8
TEXT
10
331537
20
3326682
30
0
40
3.2
1
B91
50
0
0
LINE
8
BUILDINGS
10
331530
20
3326702
30
0
11
331555
21
3326702
31
0
0
LINE
8
BUILDINGS
10
331555
20
3326702
30
0
11
331555
21
3326730
31
0
0
LINE
8
BUILDINGS
10
331555
20
3326730
30
0
11
331530
21
3326730
31
0
0
LINE
8
BUILDINGS
10
331530
20
3326730
30
0
11
331530
21
3326702
31
0
0
TEXT
8
TEXT
10
331537
20
3326714
30
0
40
3.2
1
B92
50
0
0
LINE
8
BUILDINGS
10
331558.5
20
3326670
30
0
11
331583.5
21
3326670
31
0
0
LINE
8
BUILDINGS
10
331583.5
20
3326670
30
0
11
331583.5
21
3326698
31
0
0
LINE
8
BUILDINGS
10
331583.5
20
3326698
30
0
11
331558.5
21
3326698
31
0
0
LINE
8
BUILDINGS
10
331558.5
20
3326698
30
0
11
331558.5
21
3326670
31
0
0
TEXT
8
TEXT
10
331565.5
20
3326682
30
0
40
3.2
1
B93
50
0
0
LINE
8
BUILDINGS
10
331558.5
20
3326702
30
0
11
331583.5
21
3326702
31
0
0
LINE
8
BUILDINGS
10
331583.5
20
3326702
30
0
11
331583.5
21
3326730
31
0
0
LINE
8
BUILDINGS
10
331583.5
20
3326730
30
0
11
331558.5
21
3326730
31
0
0
LINE
8
BUILDINGS
10
331558.5
20
3326730
30
0
11
331558.5
21
3326702
31
0
0
TEXT
8
TEXT
10
331565.5
20
3326714
30
0
40
3.2
1
B94
50
0
0
LINE
8
BUILDINGS
10
331587
20
3326670
30
0
11
331612
21
3326670
31
0
0
LINE
8
BUILDINGS
10
331612
20
3326670
30
0
11
331612
21
3326698
31
0
0
LINE
8
BUILDINGS
10
331612
20
3326698
30
0
11
331587
21
3326698
31
0
0
LINE
8
BUILDINGS
10
331587
20
3326698
30
0
11
331587
21
3326670
31
0
0
TEXT
8
TEXT
10
331594
20
3326682
30
0
40
3.2
1
B95
50
0
0
LINE
8
BUILDINGS
10
331587
20
3326702
30
0
11
331612
21
3326702
31
0
0
LINE
8
BUILDINGS
10
331612
20
3326702
30
0
11
331612
21
3326730
31
0
0
LINE
8
BUILDINGS
10
331612
20
3326730
30
0
11
331587
21
3326730
31
0
0
LINE
8
BUILDINGS
10
331587
20
3326730
30
0
11
331587
21
3326702
31
0
0
TEXT
8
TEXT
10
331594
20
3326714
30
0
40
3.2
1
B96
50
0
0
LINE
8
BUILDINGS
10
331634
20
3326418
30
0
11
331659
21
3326418
31
0
0
LINE
8
BUILDINGS
10
331659
20
3326418
30
0
11
331659
21
3326446
31
0
0
LINE
8
BUILDINGS
10
331659
20
3326446
30
0
11
331634
21
3326446
31
0
0
LINE
8
BUILDINGS
10
331634
20
3326446
30
0
11
331634
21
3326418
31
0
0
TEXT
8
TEXT
10
331641
20
3326430
30
0
40
3.2
1
B97
50
0
0
LINE
8
BUILDINGS
10
331634
20
3326450
30
0
11
331659
21
3326450
31
0
0
LINE
8
BUILDINGS
10
331659
20
3326450
30
0
11
331659
21
3326478
31
0
0
LINE
8
BUILDINGS
10
331659
20
3326478
30
0
11
331634
21
3326478
31
0
0
LINE
8
BUILDINGS
10
331634
20
3326478
30
0
11
331634
21
3326450
31
0
0
TEXT
8
TEXT
10
331641
20
3326462
30
0
40
3.2
1
B98
50
0
0
LINE
8
BUILDINGS
10
331662.5
20
3326418
30
0
11
331687.5
21
3326418
31
0
0
LINE
8
BUILDINGS
10
331687.5
20
3326418
30
0
11
331687.5
21
3326446
31
0
0
LINE
8
BUILDINGS
10
331687.5
20
3326446
30
0
11
331662.5
21
3326446
31
0
0
LINE
8
BUILDINGS
10
331662.5
20
3326446
30
0
11
331662.5
21
3326418
31
0
0
TEXT
8
TEXT
10
331669.5
20
3326430
30
0
40
3.2
1
B99
50
0
0
LINE
8
BUILDINGS
10
331662.5
20
3326450
30
0
11
331687.5
21
3326450
31
0
0
LINE
8
BUILDINGS
10
331687.5
20
3326450
30
0
11
331687.5
21
3326478
31
0
0
LINE
8
BUILDINGS
10
331687.5
20
3326478
30
0
11
331662.5
21
3326478
31
0
0
LINE
8
BUILDINGS
10
331662.5
20
3326478
30
0
11
331662.5
21
3326450
31
0
0
TEXT
8
TEXT
10
331669.5
20
3326462
30
0
40
3.2
1
B100
50
0
0
LINE
8
BUILDINGS
10
331691
20
3326418
30
0
11
331716
21
3326418
31
0
0
LINE
8
BUILDINGS
10
331716
20
3326418
30
0
11
331716
21
3326446
31
0
0
LINE
8
BUILDINGS
10
331716
20
3326446
30
0
11
331691
21
3326446
31
0
0
LINE
8
BUILDINGS
10
331691
20
3326446
30
0
11
331691
21
3326418
31
0
0
TEXT
8
TEXT
10
331698
20
3326430
30
0
40
3.2
1
B101
50
0
0
LINE
8
BUILDINGS
10
331691
20
3326450
30
0
11
331716
21
3326450
31
0
0
LINE
8
BUILDINGS
10
331716
20
3326450
30
0
11
331716
21
3326478
31
0
0
LINE
8
BUILDINGS
10
331716
20
3326478
30
0
11
331691
21
3326478
31
0
0
LINE
8
BUILDINGS
10
331691
20
3326478
30
0
11
331691
21
3326450
31
0
0
TEXT
8
TEXT
10
331698
20
3326462
30
0
40
3.2
1
B102
50
0
0
LINE
8
BUILDINGS
10
331634
20
3326502
30
0
11
331659
21
3326502
31
0
0
LINE
8
BUILDINGS
10
331659
20
3326502
30
0
11
331659
21
3326530
31
0
0
LINE
8
BUILDINGS
10
331659
20
3326530
30
0
11
331634
21
3326530
31
0
0
LINE
8
BUILDINGS
10
331634
20
3326530
30
0
11
331634
21
3326502
31
0
0
TEXT
8
TEXT
10
331641
20
3326514
30
0
40
3.2
1
B103
50
0
0
LINE
8
BUILDINGS
10
331634
20
3326534
30
0
11
331659
21
3326534
31
0
0
LINE
8
BUILDINGS
10
331659
20
3326534
30
0
11
331659
21
3326562
31
0
0
LINE
8
BUILDINGS
10
331659
20
3326562
30
0
11
331634
21
3326562
31
0
0
LINE
8
BUILDINGS
10
331634
20
3326562
30
0
11
331634
21
3326534
31
0
0
TEXT
8
TEXT
10
331641
20
3326546
30
0
40
3.2
1
B104
50
0
0
LINE
8
BUILDINGS
10
331662.5
20
3326502
30
0
11
331687.5
21
3326502
31
0
0
LINE
8
BUILDINGS
10
331687.5
20
3326502
30
0
11
331687.5
21
3326530
31
0
0
LINE
8
BUILDINGS
10
331687.5
20
3326530
30
0
11
331662.5
21
3326530
31
0
0
LINE
8
BUILDINGS
10
331662.5
20
3326530
30
0
11
331662.5
21
3326502
31
0
0
TEXT
8
TEXT
10
331669.5
20
3326514
30
0
40
3.2
1
B105
50
0
0
LINE
8
BUILDINGS
10
331662.5
20
3326534
30
0
11
331687.5
21
3326534
31
0
0
LINE
8
BUILDINGS
10
331687.5
20
3326534
30
0
11
331687.5
21
3326562
31
0
0
LINE
8
BUILDINGS
10
331687.5
20
3326562
30
0
11
331662.5
21
3326562
31
0
0
LINE
8
BUILDINGS
10
331662.5
20
3326562
30
0
11
331662.5
21
3326534
31
0
0
TEXT
8
TEXT
10
331669.5
20
3326546
30
0
40
3.2
1
B106
50
0
0
LINE
8
BUILDINGS
10
331691
20
3326502
30
0
11
331716
21
3326502
31
0
0
LINE
8
BUILDINGS
10
331716
20
3326502
30
0
11
331716
21
3326530
31
0
0
LINE
8
BUILDINGS
10
331716
20
3326530
30
0
11
331691
21
3326530
31
0
0
LINE
8
BUILDINGS
10
331691
20
3326530
30
0
11
331691
21
3326502
31
0
0
TEXT
8
TEXT
10
331698
20
3326514
30
0
40
3.2
1
B107
50
0
0
LINE
8
BUILDINGS
10
331691
20
3326534
30
0
11
331716
21
3326534
31
0
0
LINE
8
BUILDINGS
10
331716
20
3326534
30
0
11
331716
21
3326562
31
0
0
LINE
8
BUILDINGS
10
331716
20
3326562
30
0
11
331691
21
3326562
31
0
0
LINE
8
BUILDINGS
10
331691
20
3326562
30
0
11
331691
21
3326534
31
0
0
TEXT
8
TEXT
10
331698
20
3326546
30
0
40
3.2
1
B108
50
0
0
LINE
8
BUILDINGS
10
331634
20
3326586
30
0
11
331659
21
3326586
31
0
0
LINE
8
BUILDINGS
10
331659
20
3326586
30
0
11
331659
21
3326614
31
0
0
LINE
8
BUILDINGS
10
331659
20
3326614
30
0
11
331634
21
3326614
31
0
0
LINE
8
BUILDINGS
10
331634
20
3326614
30
0
11
331634
21
3326586
31
0
0
TEXT
8
TEXT
10
331641
20
3326598
30
0
40
3.2
1
B109
50
0
0
LINE
8
BUILDINGS
10
331634
20
3326618
30
0
11
331659
21
3326618
31
0
0
LINE
8
BUILDINGS
10
331659
20
3326618
30
0
11
331659
21
3326646
31
0
0
LINE
8
BUILDINGS
10
331659
20
3326646
30
0
11
331634
21
3326646
31
0
0
LINE
8
BUILDINGS
10
331634
20
3326646
30
0
11
331634
21
3326618
31
0
0
TEXT
8
TEXT
10
331641
20
3326630
30
0
40
3.2
1
B110
50
0
0
LINE
8
BUILDINGS
10
331662.5
20
3326586
30
0
11
331687.5
21
3326586
31
0
0
LINE
8
BUILDINGS
10
331687.5
20
3326586
30
0
11
331687.5
21
3326614
31
0
0
LINE
8
BUILDINGS
10
331687.5
20
3326614
30
0
11
331662.5
21
3326614
31
0
0
LINE
8
BUILDINGS
10
331662.5
20
3326614
30
0
11
331662.5
21
3326586
31
0
0
TEXT
8
TEXT
10
331669.5
20
3326598
30
0
40
3.2
1
B111
50
0
0
LINE
8
BUILDINGS
10
331662.5
20
3326618
30
0
11
331687.5
21
3326618
31
0
0
LINE
8
BUILDINGS
10
331687.5
20
3326618
30
0
11
331687.5
21
3326646
31
0
0
LINE
8
BUILDINGS
10
331687.5
20
3326646
30
0
11
331662.5
21
3326646
31
0
0
LINE
8
BUILDINGS
10
331662.5
20
3326646
30
0
11
331662.5
21
3326618
31
0
0
TEXT
8
TEXT
10
331669.5
20
3326630
30
0
40
3.2
1
B112
50
0
0
LINE
8
BUILDINGS
10
331691
20
3326586
30
0
11
331716
21
3326586
31
0
0
LINE
8
BUILDINGS
10
331716
20
3326586
30
0
11
331716
21
3326614
31
0
0
LINE
8
BUILDINGS
10
331716
20
3326614
30
0
11
331691
21
3326614
31
0
0
LINE
8
BUILDINGS
10
331691
20
3326614
30
0
11
331691
21
3326586
31
0
0
TEXT
8
TEXT
10
331698
20
3326598
30
0
40
3.2
1
B113
50
0
0
LINE
8
BUILDINGS
10
331691
20
3326618
30
0
11
331716
21
3326618
31
0
0
LINE
8
BUILDINGS
10
331716
20
3326618
30
0
11
331716
21
3326646
31
0
0
LINE
8
BUILDINGS
10
331716
20
3326646
30
0
11
331691
21
3326646
31
0
0
LINE
8
BUILDINGS
10
331691
20
3326646
30
0
11
331691
21
3326618
31
0
0
TEXT
8
TEXT
10
331698
20
3326630
30
0
40
3.2
1
B114
50
0
0
LINE
8
BUILDINGS
10
331634
20
3326670
30
0
11
331659
21
3326670
31
0
0
LINE
8
BUILDINGS
10
331659
20
3326670
30
0
11
331659
21
3326698
31
0
0
LINE
8
BUILDINGS
10
331659
20
3326698
30
0
11
331634
21
3326698
31
0
0
LINE
8
BUILDINGS
10
331634
20
3326698
30
0
11
331634
21
3326670
31
0
0
TEXT
8
TEXT
10
331641
20
3326682
30
0
40
3.2
1
B115
50
0
0
LINE
8
BUILDINGS
10
331634
20
3326702
30
0
11
331659
21
3326702
31
0
0
LINE
8
BUILDINGS
10
331659
20
3326702
30
0
11
331659
21
3326730
31
0
0
LINE
8
BUILDINGS
10
331659
20
3326730
30
0
11
331634
21
3326730
31
0
0
LINE
8
BUILDINGS
10
331634
20
3326730
30
0
11
331634
21
3326702
31
0
0
TEXT
8
TEXT
10
331641
20
3326714
30
0
40
3.2
1
B116
50
0
0
LINE
8
BUILDINGS
10
331662.5
20
3326670
30
0
11
331687.5
21
3326670
31
0
0
LINE
8
BUILDINGS
10
331687.5
20
3326670
30
0
11
331687.5
21
3326698
31
0
0
LINE
8
BUILDINGS
10
331687.5
20
3326698
30
0
11
331662.5
21
3326698
31
0
0
LINE
8
BUILDINGS
10
331662.5
20
3326698
30
0
11
331662.5
21
3326670
31
0
0
TEXT
8
TEXT
10
331669.5
20
3326682
30
0
40
3.2
1
B117
50
0
0
LINE
8
BUILDINGS
10
331662.5
20
3326702
30
0
11
331687.5
21
3326702
31
0
0
LINE
8
BUILDINGS
10
331687.5
20
3326702
30
0
11
331687.5
21
3326730
31
0
0
LINE
8
BUILDINGS
10
331687.5
20
3326730
30
0
11
331662.5
21
3326730
31
0
0
LINE
8
BUILDINGS
10
331662.5
20
3326730
30
0
11
331662.5
21
3326702
31
0
0
TEXT
8
TEXT
10
331669.5
20
3326714
30
0
40
3.2
1
B118
50
0
0
LINE
8
BUILDINGS
10
331691
20
3326670
30
0
11
331716
21
3326670
31
0
0
LINE
8
BUILDINGS
10
331716
20
3326670
30
0
11
331716
21
3326698
31
0
0
LINE
8
BUILDINGS
10
331716
20
3326698
30
0
11
331691
21
3326698
31
0
0
LINE
8
BUILDINGS
10
331691
20
3326698
30
0
11
331691
21
3326670
31
0
0
TEXT
8
TEXT
10
331698
20
3326682
30
0
40
3.2
1
B119
50
0
0
LINE
8
BUILDINGS
10
331691
20
3326702
30
0
11
331716
21
3326702
31
0
0
LINE
8
BUILDINGS
10
331716
20
3326702
30
0
11
331716
21
3326730
31
0
0
LINE
8
BUILDINGS
10
331716
20
3326730
30
0
11
331691
21
3326730
31
0
0
LINE
8
BUILDINGS
10
331691
20
3326730
30
0
11
331691
21
3326702
31
0
0
TEXT
8
TEXT
10
331698
20
3326714
30
0
40
3.2
1
B120
50
0
0
LINE
8
FDH
10
331203
20
3326404
30
0
11
331211
21
3326404
31
0
0
LINE
8
FDH
10
331211
20
3326404
30
0
11
331211
21
3326410
31
0
0
LINE
8
FDH
10
331211
20
3326410
30
0
11
331203
21
3326410
31
0
0
LINE
8
FDH
10
331203
20
3326410
30
0
11
331203
21
3326404
31
0
0
TEXT
8
FDH
10
331213
20
3326411
30
0
40
4
1
FDH-01
50
0
0
LINE
8
FDT
10
331204
20
3326488.5
30
0
11
331210
21
3326488.5
31
0
0
LINE
8
FDT
10
331210
20
3326488.5
30
0
11
331210
21
3326493.5
31
0
0
LINE
8
FDT
10
331210
20
3326493.5
30
0
11
331204
21
3326493.5
31
0
0
LINE
8
FDT
10
331204
20
3326493.5
30
0
11
331204
21
3326488.5
31
0
0
TEXT
8
FDT
10
331212
20
3326494.5
30
0
40
3.5
1
FDT-01
50
0
0
CIRCLE
8
FAT
10
331259
20
3326491
30
0
40
2.6
0
TEXT
8
FAT
10
331252
20
3326495.5
30
0
40
3
1
FAT-1.1
50
0
0
LINE
8
DROP_CABLE
10
331259
20
3326491
30
0
11
331230.5
21
3326478
31
0
0
LINE
8
DROP_CABLE
10
331259
20
3326491
30
0
11
331259
21
3326478
31
0
0
LINE
8
DROP_CABLE
10
331259
20
3326491
30
0
11
331287.5
21
3326478
31
0
0
CIRCLE
8
FAT
10
331363
20
3326491
30
0
40
2.6
0
TEXT
8
FAT
10
331356
20
3326495.5
30
0
40
3
1
FAT-1.2
50
0
0
LINE
8
DROP_CABLE
10
331363
20
3326491
30
0
11
331334.5
21
3326478
31
0
0
LINE
8
DROP_CABLE
10
331363
20
3326491
30
0
11
331363
21
3326478
31
0
0
LINE
8
DROP_CABLE
10
331363
20
3326491
30
0
11
331391.5
21
3326478
31
0
0
CIRCLE
8
FAT
10
331467
20
3326491
30
0
40
2.6
0
TEXT
8
FAT
10
331460
20
3326495.5
30
0
40
3
1
FAT-1.3
50
0
0
LINE
8
DROP_CABLE
10
331467
20
3326491
30
0
11
331438.5
21
3326478
31
0
0
LINE
8
DROP_CABLE
10
331467
20
3326491
30
0
11
331467
21
3326478
31
0
0
LINE
8
DROP_CABLE
10
331467
20
3326491
30
0
11
331495.5
21
3326478
31
0
0
CIRCLE
8
FAT
10
331571
20
3326491
30
0
40
2.6
0
TEXT
8
FAT
10
331564
20
3326495.5
30
0
40
3
1
FAT-1.4
50
0
0
LINE
8
DROP_CABLE
10
331571
20
3326491
30
0
11
331542.5
21
3326478
31
0
0
LINE
8
DROP_CABLE
10
331571
20
3326491
30
0
11
331571
21
3326478
31
0
0
LINE
8
DROP_CABLE
10
331571
20
3326491
30
0
11
331599.5
21
3326478
31
0
0
CIRCLE
8
FAT
10
331675
20
3326491
30
0
40
2.6
0
TEXT
8
FAT
10
331668
20
3326495.5
30
0
40
3
1
FAT-1.5
50
0
0
LINE
8
DROP_CABLE
10
331675
20
3326491
30
0
11
331646.5
21
3326478
31
0
0
LINE
8
DROP_CABLE
10
331675
20
3326491
30
0
11
331675
21
3326478
31
0
0
LINE
8
DROP_CABLE
10
331675
20
3326491
30
0
11
331703.5
21
3326478
31
0
0
LINE
8
FIBER_CABLE
10
331207
20
3326491
30
0
11
331259
21
3326491
31
0
0
LINE
8
FIBER_CABLE
10
331259
20
3326491
30
0
11
331363
21
3326491
31
0
0
LINE
8
FIBER_CABLE
10
331363
20
3326491
30
0
11
331467
21
3326491
31
0
0
LINE
8
FIBER_CABLE
10
331467
20
3326491
30
0
11
331571
21
3326491
31
0
0
LINE
8
FIBER_CABLE
10
331571
20
3326491
30
0
11
331675
21
3326491
31
0
0
TEXT
8
FIBER_CABLE
10
331234
20
3326487
30
0
40
2.8
1
48F ADSS  FDT-01 > FAT-1.x
50
0
0
LINE
8
FDT
10
331204
20
3326572.5
30
0
11
331210
21
3326572.5
31
0
0
LINE
8
FDT
10
331210
20
3326572.5
30
0
11
331210
21
3326577.5
31
0
0
LINE
8
FDT
10
331210
20
3326577.5
30
0
11
331204
21
3326577.5
31
0
0
LINE
8
FDT
10
331204
20
3326577.5
30
0
11
331204
21
3326572.5
31
0
0
TEXT
8
FDT
10
331212
20
3326578.5
30
0
40
3.5
1
FDT-02
50
0
0
CIRCLE
8
FAT
10
331259
20
3326575
30
0
40
2.6
0
TEXT
8
FAT
10
331252
20
3326579.5
30
0
40
3
1
FAT-2.1
50
0
0
LINE
8
DROP_CABLE
10
331259
20
3326575
30
0
11
331230.5
21
3326562
31
0
0
LINE
8
DROP_CABLE
10
331259
20
3326575
30
0
11
331259
21
3326562
31
0
0
LINE
8
DROP_CABLE
10
331259
20
3326575
30
0
11
331287.5
21
3326562
31
0
0
CIRCLE
8
FAT
10
331363
20
3326575
30
0
40
2.6
0
TEXT
8
FAT
10
331356
20
3326579.5
30
0
40
3
1
FAT-2.2
50
0
0
LINE
8
DROP_CABLE
10
331363
20
3326575
30
0
11
331334.5
21
3326562
31
0
0
LINE
8
DROP_CABLE
10
331363
20
3326575
30
0
11
331363
21
3326562
31
0
0
LINE
8
DROP_CABLE
10
331363
20
3326575
30
0
11
331391.5
21
3326562
31
0
0
CIRCLE
8
FAT
10
331467
20
3326575
30
0
40
2.6
0
TEXT
8
FAT
10
331460
20
3326579.5
30
0
40
3
1
FAT-2.3
50
0
0
LINE
8
DROP_CABLE
10
331467
20
3326575
30
0
11
331438.5
21
3326562
31
0
0
LINE
8
DROP_CABLE
10
331467
20
3326575
30
0
11
331467
21
3326562
31
0
0
LINE
8
DROP_CABLE
10
331467
20
3326575
30
0
11
331495.5
21
3326562
31
0
0
CIRCLE
8
FAT
10
331571
20
3326575
30
0
40
2.6
0
TEXT
8
FAT
10
331564
20
3326579.5
30
0
40
3
1
FAT-2.4
50
0
0
LINE
8
DROP_CABLE
10
331571
20
3326575
30
0
11
331542.5
21
3326562
31
0
0
LINE
8
DROP_CABLE
10
331571
20
3326575
30
0
11
331571
21
3326562
31
0
0
LINE
8
DROP_CABLE
10
331571
20
3326575
30
0
11
331599.5
21
3326562
31
0
0
CIRCLE
8
FAT
10
331675
20
3326575
30
0
40
2.6
0
TEXT
8
FAT
10
331668
20
3326579.5
30
0
40
3
1
FAT-2.5
50
0
0
LINE
8
DROP_CABLE
10
331675
20
3326575
30
0
11
331646.5
21
3326562
31
0
0
LINE
8
DROP_CABLE
10
331675
20
3326575
30
0
11
331675
21
3326562
31
0
0
LINE
8
DROP_CABLE
10
331675
20
3326575
30
0
11
331703.5
21
3326562
31
0
0
LINE
8
FIBER_CABLE
10
331207
20
3326575
30
0
11
331259
21
3326575
31
0
0
LINE
8
FIBER_CABLE
10
331259
20
3326575
30
0
11
331363
21
3326575
31
0
0
LINE
8
FIBER_CABLE
10
331363
20
3326575
30
0
11
331467
21
3326575
31
0
0
LINE
8
FIBER_CABLE
10
331467
20
3326575
30
0
11
331571
21
3326575
31
0
0
LINE
8
FIBER_CABLE
10
331571
20
3326575
30
0
11
331675
21
3326575
31
0
0
TEXT
8
FIBER_CABLE
10
331234
20
3326571
30
0
40
2.8
1
48F ADSS  FDT-02 > FAT-2.x
50
0
0
LINE
8
FDT
10
331204
20
3326656.5
30
0
11
331210
21
3326656.5
31
0
0
LINE
8
FDT
10
331210
20
3326656.5
30
0
11
331210
21
3326661.5
31
0
0
LINE
8
FDT
10
331210
20
3326661.5
30
0
11
331204
21
3326661.5
31
0
0
LINE
8
FDT
10
331204
20
3326661.5
30
0
11
331204
21
3326656.5
31
0
0
TEXT
8
FDT
10
331212
20
3326662.5
30
0
40
3.5
1
FDT-03
50
0
0
CIRCLE
8
FAT
10
331259
20
3326659
30
0
40
2.6
0
TEXT
8
FAT
10
331252
20
3326663.5
30
0
40
3
1
FAT-3.1
50
0
0
LINE
8
DROP_CABLE
10
331259
20
3326659
30
0
11
331230.5
21
3326646
31
0
0
LINE
8
DROP_CABLE
10
331259
20
3326659
30
0
11
331259
21
3326646
31
0
0
LINE
8
DROP_CABLE
10
331259
20
3326659
30
0
11
331287.5
21
3326646
31
0
0
CIRCLE
8
FAT
10
331363
20
3326659
30
0
40
2.6
0
TEXT
8
FAT
10
331356
20
3326663.5
30
0
40
3
1
FAT-3.2
50
0
0
LINE
8
DROP_CABLE
10
331363
20
3326659
30
0
11
331334.5
21
3326646
31
0
0
LINE
8
DROP_CABLE
10
331363
20
3326659
30
0
11
331363
21
3326646
31
0
0
LINE
8
DROP_CABLE
10
331363
20
3326659
30
0
11
331391.5
21
3326646
31
0
0
CIRCLE
8
FAT
10
331467
20
3326659
30
0
40
2.6
0
TEXT
8
FAT
10
331460
20
3326663.5
30
0
40
3
1
FAT-3.3
50
0
0
LINE
8
DROP_CABLE
10
331467
20
3326659
30
0
11
331438.5
21
3326646
31
0
0
LINE
8
DROP_CABLE
10
331467
20
3326659
30
0
11
331467
21
3326646
31
0
0
LINE
8
DROP_CABLE
10
331467
20
3326659
30
0
11
331495.5
21
3326646
31
0
0
CIRCLE
8
FAT
10
331571
20
3326659
30
0
40
2.6
0
TEXT
8
FAT
10
331564
20
3326663.5
30
0
40
3
1
FAT-3.4
50
0
0
LINE
8
DROP_CABLE
10
331571
20
3326659
30
0
11
331542.5
21
3326646
31
0
0
LINE
8
DROP_CABLE
10
331571
20
3326659
30
0
11
331571
21
3326646
31
0
0
LINE
8
DROP_CABLE
10
331571
20
3326659
30
0
11
331599.5
21
3326646
31
0
0
CIRCLE
8
FAT
10
331675
20
3326659
30
0
40
2.6
0
TEXT
8
FAT
10
331668
20
3326663.5
30
0
40
3
1
FAT-3.5
50
0
0
LINE
8
DROP_CABLE
10
331675
20
3326659
30
0
11
331646.5
21
3326646
31
0
0
LINE
8
DROP_CABLE
10
331675
20
3326659
30
0
11
331675
21
3326646
31
0
0
LINE
8
DROP_CABLE
10
331675
20
3326659
30
0
11
331703.5
21
3326646
31
0
0
LINE
8
FIBER_CABLE
10
331207
20
3326659
30
0
11
331259
21
3326659
31
0
0
LINE
8
FIBER_CABLE
10
331259
20
3326659
30
0
11
331363
21
3326659
31
0
0
LINE
8
FIBER_CABLE
10
331363
20
3326659
30
0
11
331467
21
3326659
31
0
0
LINE
8
FIBER_CABLE
10
331467
20
3326659
30
0
11
331571
21
3326659
31
0
0
LINE
8
FIBER_CABLE
10
331571
20
3326659
30
0
11
331675
21
3326659
31
0
0
TEXT
8
FIBER_CABLE
10
331234
20
3326655
30
0
40
2.8
1
48F ADSS  FDT-03 > FAT-3.x
50
0
0
LINE
8
FDT
10
331204
20
3326740.5
30
0
11
331210
21
3326740.5
31
0
0
LINE
8
FDT
10
331210
20
3326740.5
30
0
11
331210
21
3326745.5
31
0
0
LINE
8
FDT
10
331210
20
3326745.5
30
0
11
331204
21
3326745.5
31
0
0
LINE
8
FDT
10
331204
20
3326745.5
30
0
11
331204
21
3326740.5
31
0
0
TEXT
8
FDT
10
331212
20
3326746.5
30
0
40
3.5
1
FDT-04
50
0
0
CIRCLE
8
FAT
10
331259
20
3326743
30
0
40
2.6
0
TEXT
8
FAT
10
331252
20
3326747.5
30
0
40
3
1
FAT-4.1
50
0
0
LINE
8
DROP_CABLE
10
331259
20
3326743
30
0
11
331230.5
21
3326730
31
0
0
LINE
8
DROP_CABLE
10
331259
20
3326743
30
0
11
331259
21
3326730
31
0
0
LINE
8
DROP_CABLE
10
331259
20
3326743
30
0
11
331287.5
21
3326730
31
0
0
CIRCLE
8
FAT
10
331363
20
3326743
30
0
40
2.6
0
TEXT
8
FAT
10
331356
20
3326747.5
30
0
40
3
1
FAT-4.2
50
0
0
LINE
8
DROP_CABLE
10
331363
20
3326743
30
0
11
331334.5
21
3326730
31
0
0
LINE
8
DROP_CABLE
10
331363
20
3326743
30
0
11
331363
21
3326730
31
0
0
LINE
8
DROP_CABLE
10
331363
20
3326743
30
0
11
331391.5
21
3326730
31
0
0
CIRCLE
8
FAT
10
331467
20
3326743
30
0
40
2.6
0
TEXT
8
FAT
10
331460
20
3326747.5
30
0
40
3
1
FAT-4.3
50
0
0
LINE
8
DROP_CABLE
10
331467
20
3326743
30
0
11
331438.5
21
3326730
31
0
0
LINE
8
DROP_CABLE
10
331467
20
3326743
30
0
11
331467
21
3326730
31
0
0
LINE
8
DROP_CABLE
10
331467
20
3326743
30
0
11
331495.5
21
3326730
31
0
0
CIRCLE
8
FAT
10
331571
20
3326743
30
0
40
2.6
0
TEXT
8
FAT
10
331564
20
3326747.5
30
0
40
3
1
FAT-4.4
50
0
0
LINE
8
DROP_CABLE
10
331571
20
3326743
30
0
11
331542.5
21
3326730
31
0
0
LINE
8
DROP_CABLE
10
331571
20
3326743
30
0
11
331571
21
3326730
31
0
0
LINE
8
DROP_CABLE
10
331571
20
3326743
30
0
11
331599.5
21
3326730
31
0
0
CIRCLE
8
FAT
10
331675
20
3326743
30
0
40
2.6
0
TEXT
8
FAT
10
331668
20
3326747.5
30
0
40
3
1
FAT-4.5
50
0
0
LINE
8
DROP_CABLE
10
331675
20
3326743
30
0
11
331646.5
21
3326730
31
0
0
LINE
8
DROP_CABLE
10
331675
20
3326743
30
0
11
331675
21
3326730
31
0
0
LINE
8
DROP_CABLE
10
331675
20
3326743
30
0
11
331703.5
21
3326730
31
0
0
LINE
8
FIBER_CABLE
10
331207
20
3326743
30
0
11
331259
21
3326743
31
0
0
LINE
8
FIBER_CABLE
10
331259
20
3326743
30
0
11
331363
21
3326743
31
0
0
LINE
8
FIBER_CABLE
10
331363
20
3326743
30
0
11
331467
21
3326743
31
0
0
LINE
8
FIBER_CABLE
10
331467
20
3326743
30
0
11
331571
21
3326743
31
0
0
LINE
8
FIBER_CABLE
10
331571
20
3326743
30
0
11
331675
21
3326743
31
0
0
TEXT
8
FIBER_CABLE
10
331234
20
3326739
30
0
40
2.8
1
48F ADSS  FDT-04 > FAT-4.x
50
0
0
LINE
8
FIBER_CABLE
10
331207
20
3326407
30
0
11
331207
21
3326491
31
0
0
LINE
8
FIBER_CABLE
10
331207
20
3326491
30
0
11
331207
21
3326575
31
0
0
LINE
8
FIBER_CABLE
10
331207
20
3326575
30
0
11
331207
21
3326659
31
0
0
LINE
8
FIBER_CABLE
10
331207
20
3326659
30
0
11
331207
21
3326743
31
0
0
CIRCLE
8
MANHOLE
10
331207
20
3326407
30
0
40
1.6
0
CIRCLE
8
MANHOLE
10
331207
20
3326491
30
0
40
1.6
0
CIRCLE
8
MANHOLE
10
331207
20
3326575
30
0
40
1.6
0
CIRCLE
8
MANHOLE
10
331207
20
3326659
30
0
40
1.6
0
CIRCLE
8
MANHOLE
10
331207
20
3326743
30
0
40
1.6
0
TEXT
8
TEXT
10
331200
20
3326388
30
0
40
6
1
FiberLens demo - synthetic FTTH area (not a real network)
50
0
0
ENDSEC
0
EOF
